# xmcd
#
# Track frame offsets: 
#        150
#        12641
#        23715
#        35460
#        45919
#        55552
#        67616
#        76611
#        87252
#        98298
#        108169
#        118338
#        129898
#
# Disc length: 1883 seconds
#
# Revision: 0
# Processed by: cddbd v1.5.2PL0 Copyright (c) Steve Scherf et al.
# Submitted via: ExactAudioCopy v0.95b3
#
DISCID=8507590d
DTITLE=The Beatles  - 1962-1966 CD 2 (US Stereo Ebbetts)
DYEAR=1900
DGENRE=
TTITLE0=Michelle
TTITLE1=In My Life
TTITLE2=Girl
TTITLE3=Paperback Writer
TTITLE4=Eleanor Rigby
TTITLE5=Yellow Submarine
TTITLE6=From Me to You
TTITLE7=She Loves You
TTITLE8=I Want to Hold Your Hand
TTITLE9=All My Loving
TTITLE10=Can't Buy me Love
TTITLE11=A Hard Day's Night
TTITLE12=And I Love Her
EXTD=
EXTT0=
EXTT1=
EXTT2=
EXTT3=
EXTT4=
EXTT5=
EXTT6=
EXTT7=
EXTT8=
EXTT9=
EXTT10=
EXTT11=
EXTT12=
PLAYORDER=
